<?xml version="1.0" encoding="UTF-8" standalone="no"?>
<!-- Created with Inkscape (http://www.inkscape.org/) -->

<svg
   xmlns:dc="http://purl.org/dc/elements/1.1/"
   xmlns:cc="http://creativecommons.org/ns#"
   xmlns:rdf="http://www.w3.org/1999/02/22-rdf-syntax-ns#"
   xmlns:svg="http://www.w3.org/2000/svg"
   xmlns="http://www.w3.org/2000/svg"
   xmlns:inkscape="http://www.inkscape.org/namespaces/inkscape"
   version="1.1"
   width="471.25"
   height="180"
   id="svg2"
   xml:space="preserve"><metadata
     id="metadata8"><rdf:RDF><cc:Work
         rdf:about=""><dc:format>image/svg+xml</dc:format><dc:type
           rdf:resource="http://purl.org/dc/dcmitype/StillImage" /></cc:Work></rdf:RDF></metadata><defs
     id="defs6" /><g
     transform="matrix(1.25,0,0,-1.25,0,180)"
     id="g10"><g
       transform="scale(0.1,0.1)"
       id="g12"><path
         d="m 50.6172,123.332 3655.0028,548 m 55,7.996 0,0"
         inkscape:connector-curvature="0"
         id="path14"
         style="fill:none;stroke:#231f20;stroke-width:9;stroke-linecap:butt;stroke-linejoin:miter;stroke-miterlimit:10;stroke-opacity:1;stroke-dasharray:none" /><path
         d="m 3760.62,679.328 -134,-45 -8,49 142,-4"
         inkscape:connector-curvature="0"
         id="path16"
         style="fill:#231f20;fill-opacity:1;fill-rule:evenodd;stroke:none" /><g
         transform="scale(10,10)"
         id="g18"><text
           transform="matrix(0.98769,0.156425,0.156425,-0.98769,367.63,53.8648)"
           id="text20"><tspan
             x="0"
             y="0"
             id="tspan22"
             style="font-size:15.99960232px;font-style:italic;font-variant:normal;font-weight:normal;writing-mode:lr-tb;fill:#231f20;fill-opacity:1;fill-rule:nonzero;stroke:none;font-family:Times New Roman;-inkscape-font-specification:TimesNewRomanPSMT-NormalItalic">x</tspan></text>
</g><path
         d="m 3340.62,616.328 -116,768.012 m -8,54.99 0,0"
         inkscape:connector-curvature="0"
         id="path24"
         style="fill:none;stroke:#231f20;stroke-width:9;stroke-linecap:butt;stroke-linejoin:miter;stroke-miterlimit:10;stroke-opacity:1;stroke-dasharray:none" /><path
         d="m 3216.62,1439.33 45,-134 -48,-8 3,142"
         inkscape:connector-curvature="0"
         id="path26"
         style="fill:#231f20;fill-opacity:1;fill-rule:evenodd;stroke:none" /><g
         transform="scale(10,10)"
         id="g28"><text
           transform="matrix(0.98769,0.156425,0.156425,-0.98769,312.55,131.697)"
           id="text30"><tspan
             x="0"
             y="0"
             id="tspan32"
             style="font-size:15.99960232px;font-style:italic;font-variant:normal;font-weight:normal;writing-mode:lr-tb;fill:#231f20;fill-opacity:1;fill-rule:nonzero;stroke:none;font-family:Times New Roman;-inkscape-font-specification:TimesNewRomanPSMT-NormalItalic">y</tspan></text>
</g><path
         d="m 66.6172,13.3281 -16,110.0039 3417.0028,513 17,-110.004 L 66.6172,13.3281"
         inkscape:connector-curvature="0"
         id="path34"
         style="fill:#918f90;fill-opacity:1;fill-rule:evenodd;stroke:none" /><path
         d="m 66.6172,13.3281 -16,110.0039 3417.0028,513 17,-110.004 L 66.6172,13.3281 z"
         inkscape:connector-curvature="0"
         id="path36"
         style="fill:none;stroke:#231f20;stroke-width:9;stroke-linecap:butt;stroke-linejoin:miter;stroke-miterlimit:10;stroke-opacity:1;stroke-dasharray:none" /><path
         d="m 2.61719,454.328 13.00391,2.004 11.9961,1 12,2 12.0039,2 11.9961,1.996 12,2.004 13,1.996 12.0038,1.004 11.996,2 12,1.996 12.004,2.004 11.996,1.996 13,2.004 12,1 12,1.996 12,2.004 12,1.996 12,2.004 13,1 12,1.996 12.004,2.004 11.996,1.996 12,2.004 12.004,1.996 13,1 11.996,2.004 12,1.996 12.004,2.004 11.996,2 12,2 13,1 12,1.996 12,2.004 12,2 12,2 12,1 13,1.996 12.004,2.004 11.996,2 12,2 12.004,2 11.996,0.996 13,2.004 12,1.996 12.004,2.004 11.996,2 12,1.996 12.004,1.004 12.996,1.996 12,2.004 12.004,2 11.996,2 12,2 12.004,1 13,2 11.996,2 12,2 12.004,2 11.996,1 12,2 13,2 12.004,1.996 11.996,2.004 12,1.996 12.004,1.004 11.996,2 13,2 12.004,2 11.996,1.996 12,2.004 12.004,1 11.996,1.996 13,2.004 12,1.996 12.004,2.004 11.996,1.996 12,1.004 12.004,2 13,1.996 11.996,2.004 12,1.996 12.003,1.004 12,2 12,1.996 13,2.004 12,1.996 12,2.004 12,1 12,1.996 12,2.004 13,1.996 12,2.004 12,2 12,0.996 12,2.004 12,1.996 13,2.004 12,1.996 12,2.004 12,1 12,1.996 12,2.004 12,2 13,2 12,1 12,1.996 12,2.004 12,1.996 12,2.004 13,2 12,1.996 12,1.004 12,2 12,2 12,2 13,2 12,2 12,1.996 12,2.004 12,1.996 12,2.004 13,2.996 12,2.004 12,3 12,3 12,3 12,4 13,4 12,5 12,6 12,7 12,6.996 12,10 13,10.004 12,11.996 12,14 12,15.004 12,15 12,17 13,15.996 12,16.004 12,14.996 12,14 12,12.004 12,10.996 13,9.004 12,9 12,7 12,5 12,6 12,3.996 13,4 12,3.004 12,3 12,2.996 12,3.004 12,1.996 13,2.004 12,1.996 12,2.004 12,1.996 12,2.004 12,2 13,1.996 12,2.004 12,1.996 12,2.004 12,1.996 12,2.004 13,1 12,1.996 12,2.004 12,1.996 12,2.004 12,1.996 13,1 12,2.004 12,1.996 12,2.002 12,2 12,2 13,1 12,2 12,2 12,2 12,2 12,2 13,1 12,2 12,2 12,2 12,2 12,1 13,2 12,2 12,2 12,2 12,2 12,1 13,2 12,2 12,2 12,2 12,2 12,1 13,2 12,2 12,2 12,2 12,2 12,1 12,2 13,2 12,2 12,2 12,1 12,2 12,2 13,2 12,2 12,2 12,1 12,2 12,2 13,2 12,2 12,2 12,1 12,2 12,2 13,2 12,2 12,2 12,1 12,2 12,2 13,2 12,2 12,1 12,2 12,2 12,2 13,2 12,2 12,1 12,2 12,2 12,2 13,2 12,2 12,1 12,2 12,2 12,2 13,2 12,1 12,2 12,2 12,2 12,2 13,2 12,1 12,2 12,2 12,2 12,2.01 13,1.99 12,1"
         inkscape:connector-curvature="0"
         id="path38"
         style="fill:none;stroke:#231f20;stroke-width:9;stroke-linecap:butt;stroke-linejoin:miter;stroke-miterlimit:10;stroke-opacity:1;stroke-dasharray:none" /><path
         d="m 141.621,475.332 49.996,-329 m -49.996,329 0,0"
         inkscape:connector-curvature="0"
         id="path40"
         style="fill:none;stroke:#231f20;stroke-width:5.9980998;stroke-linecap:butt;stroke-linejoin:miter;stroke-miterlimit:10;stroke-opacity:1;stroke-dasharray:none" /><path
         d="m 141.621,475.332 31.996,-94 -34,-6 2.004,100"
         inkscape:connector-curvature="0"
         id="path42"
         style="fill:#231f20;fill-opacity:1;fill-rule:evenodd;stroke:none" /><path
         d="m 191.617,146.332 0,0"
         inkscape:connector-curvature="0"
         id="path44"
         style="fill:none;stroke:#231f20;stroke-width:5.9980998;stroke-linecap:butt;stroke-linejoin:miter;stroke-miterlimit:10;stroke-opacity:1;stroke-dasharray:none" /><path
         d="m 191.617,146.332 -31.996,94 33.996,5 -2,-99"
         inkscape:connector-curvature="0"
         id="path46"
         style="fill:#231f20;fill-opacity:1;fill-rule:evenodd;stroke:none" /><path
         d="m 2700.62,1078.33 82,-548.998 m -82,548.998 0,0"
         inkscape:connector-curvature="0"
         id="path48"
         style="fill:none;stroke:#231f20;stroke-width:5.9980998;stroke-linecap:butt;stroke-linejoin:miter;stroke-miterlimit:10;stroke-opacity:1;stroke-dasharray:none" /><path
         d="m 2700.62,1078.33 31,-93.998 -34,-5 3,98.998"
         inkscape:connector-curvature="0"
         id="path50"
         style="fill:#231f20;fill-opacity:1;fill-rule:evenodd;stroke:none" /><path
         d="m 2782.62,529.332 0,0"
         inkscape:connector-curvature="0"
         id="path52"
         style="fill:none;stroke:#231f20;stroke-width:5.9980998;stroke-linecap:butt;stroke-linejoin:miter;stroke-miterlimit:10;stroke-opacity:1;stroke-dasharray:none" /><path
         d="m 2782.62,529.332 -31,95 34,4.996 -3,-99.996"
         inkscape:connector-curvature="0"
         id="path54"
         style="fill:#231f20;fill-opacity:1;fill-rule:evenodd;stroke:none" /><g
         transform="scale(10,10)"
         id="g56"><text
           transform="matrix(0.98769,0.156425,0.156425,-0.98769,21.7578,28.4895)"
           id="text58"><tspan
             x="0"
             y="0"
             id="tspan60"
             style="font-size:15.99960232px;font-style:italic;font-variant:normal;font-weight:normal;writing-mode:lr-tb;fill:#231f20;fill-opacity:1;fill-rule:nonzero;stroke:none;font-family:Times New Roman;-inkscape-font-specification:TimesNewRomanPSMT-NormalItalic">h</tspan></text>
<text
           transform="matrix(0.98769,0.156425,0.156425,-0.98769,30.159369,26.58013)"
           id="text62"><tspan
             x="0"
             y="0"
             id="tspan64"
             style="font-size:7.99979115px;font-style:italic;font-variant:normal;font-weight:normal;writing-mode:lr-tb;fill:#231f20;fill-opacity:1;fill-rule:nonzero;stroke:none;font-family:Times New Roman;-inkscape-font-specification:TimesNewRomanPSMT-NormalItalic">–</tspan></text>
<text
           transform="matrix(0.98769,0.156425,0.156425,-0.98769,131.97399,45.009113)"
           id="text66"><tspan
             x="0 9.773015 14.220904 22.220705 30.220507 34.668396"
             y="0"
             id="tspan68"
             style="font-size:15.99960232px;font-variant:normal;font-weight:normal;writing-mode:lr-tb;fill:#231f20;fill-opacity:1;fill-rule:nonzero;stroke:none;font-family:Times New Roman;-inkscape-font-specification:TimesNewRomanPSMT">Liquid</tspan></text>
</g><path
         d="m 66.6172,13.3281 1994.0028,0"
         inkscape:connector-curvature="0"
         id="path70"
         style="fill:none;stroke:#231f20;stroke-width:5.9980998;stroke-linecap:butt;stroke-linejoin:miter;stroke-miterlimit:10;stroke-opacity:1;stroke-dasharray:17.9943, 17.9943;stroke-dashoffset:0" /><path
         d="m 1783.62,271.332 1,-2.004 0,-5 1,-0.996 0,-7.004 1,-1 0,-5.996 1,-1.004 0,-6 1,-0.996 0,-6 1,-2.004 0,-5.996 1,-1 0,-8 1,-2.004 0,-6.996 1,-1 0,-7.004 1,-1.996 0,-7.004 1,-1.996 0,-8 1,-2 0,-10.004 1,-1.996 0,-9 1,-2.004 0,-10 1,-1.996 0,-11.004 1,-3 0,-15 1,-3 0,-13.996 1,-4.0039 0,-19 1,-5 0,-32 1,-26 m -20,258.0039 0,0"
         inkscape:connector-curvature="0"
         id="path72"
         style="fill:none;stroke:#231f20;stroke-width:5.9980998;stroke-linecap:butt;stroke-linejoin:miter;stroke-miterlimit:10;stroke-opacity:1;stroke-dasharray:none" /><path
         d="m 1783.62,271.332 33,-94 -34,-6.004 1,100.004"
         inkscape:connector-curvature="0"
         id="path74"
         style="fill:#231f20;fill-opacity:1;fill-rule:evenodd;stroke:none" /><path
         d="m 1803.62,13.3281 0,0"
         inkscape:connector-curvature="0"
         id="path76"
         style="fill:none;stroke:#231f20;stroke-width:5.9980998;stroke-linecap:butt;stroke-linejoin:miter;stroke-miterlimit:10;stroke-opacity:1;stroke-dasharray:none" /><path
         d="m 1803.62,13.3281 -23,97.0039 35,1.996 -12,-98.9999"
         inkscape:connector-curvature="0"
         id="path78"
         style="fill:#231f20;fill-opacity:1;fill-rule:evenodd;stroke:none" /><g
         transform="scale(10,10)"
         id="g80"><text
           transform="matrix(0.997565,0.0697452,0.0697452,-0.997565,185.038,11.241)"
           id="text82"><tspan
             x="0 5.3278675"
             y="0"
             id="tspan84"
             style="font-size:15.99960232px;font-variant:normal;font-weight:normal;writing-mode:lr-tb;fill:#231f20;fill-opacity:1;fill-rule:nonzero;stroke:none;font-family:Arial Black;-inkscape-font-specification:ArialMT">-θ</tspan></text>
<text
           transform="matrix(0.997565,0.0697452,0.0697452,-0.997565,199.45284,9.0409982)"
           id="text86"><tspan
             x="0"
             y="0"
             id="tspan88"
             style="font-size:7.99982119px;font-variant:normal;font-weight:normal;writing-mode:lr-tb;fill:#231f20;fill-opacity:1;fill-rule:nonzero;stroke:none;font-family:Arial Black;-inkscape-font-specification:ArialMT">s</tspan></text>
</g><path
         d="m 2334.62,283.328 731,109 m 37,6.004 0,0"
         inkscape:connector-curvature="0"
         id="path90"
         style="fill:none;stroke:#231f20;stroke-width:9;stroke-linecap:butt;stroke-linejoin:miter;stroke-miterlimit:10;stroke-opacity:1;stroke-dasharray:none" /><path
         d="m 3102.62,398.332 -134,-45 -8,47.996 142,-2.996"
         inkscape:connector-curvature="0"
         id="path92"
         style="fill:#231f20;fill-opacity:1;fill-rule:evenodd;stroke:none" /><g
         transform="scale(10,10)"
         id="g94"><text
           transform="matrix(0.98769,0.156425,0.156425,-0.98769,257.29,16.484)"
           id="text96"><tspan
             x="0"
             y="0"
             id="tspan98"
             style="font-size:15.99960232px;font-style:italic;font-variant:normal;font-weight:normal;writing-mode:lr-tb;fill:#231f20;fill-opacity:1;fill-rule:nonzero;stroke:none;font-family:Times New Roman;-inkscape-font-specification:TimesNewRomanPSMT-NormalItalic">U</tspan></text>
<text
           transform="matrix(0.98769,0.156425,0.156425,-0.98769,268.70217,18.291397)"
           id="text100"><tspan
             x="0 9.3437681"
             y="0"
             id="tspan102"
             style="font-size:15.99960232px;font-style:italic;font-variant:normal;font-weight:normal;writing-mode:lr-tb;fill:#231f20;fill-opacity:1;fill-rule:nonzero;stroke:none;font-family:Arial Black;-inkscape-font-specification:ArialMT-NormalItalic">=1</tspan></text>
<text
           transform="matrix(0.98769,0.156425,0.156425,-0.98769,280.72873,77.541439)"
           id="text104"><tspan
             x="0"
             y="0"
             id="tspan106"
             style="font-size:15.99960232px;font-style:italic;font-variant:normal;font-weight:normal;writing-mode:lr-tb;fill:#231f20;fill-opacity:1;fill-rule:nonzero;stroke:none;font-family:Times New Roman;-inkscape-font-specification:TimesNewRomanPSMT-NormalItalic">h</tspan></text>
<text
           transform="matrix(0.98769,0.156425,0.156425,-0.98769,289.13077,75.632468)"
           id="text108"><tspan
             x="0"
             y="0"
             id="tspan110"
             style="font-size:7.99979115px;font-style:italic;font-variant:normal;font-weight:normal;writing-mode:lr-tb;fill:#231f20;fill-opacity:1;fill-rule:nonzero;stroke:none;font-family:Arial Black;-inkscape-font-specification:ArialMT-NormalItalic">+</tspan></text>
</g></g></g></svg>